<?xml version="1.0" encoding="utf-8"?>
<!-- Generator: Adobe Illustrator 12.0.1, SVG Export Plug-In . SVG Version: 6.00 Build 51448)  -->
<!DOCTYPE svg PUBLIC "-//W3C//DTD SVG 1.1//EN" "http://www.w3.org/Graphics/SVG/1.1/DTD/svg11.dtd" [
	<!ENTITY ns_svg "http://www.w3.org/2000/svg">
	<!ENTITY ns_xlink "http://www.w3.org/1999/xlink">
]>
<svg  version="1.1" id="Layer_1" xmlns="&ns_svg;" xmlns:xlink="&ns_xlink;" width="362.176" height="354.945"
	 viewBox="0 0 362.176 354.945" overflow="visible" enable-background="new 0 0 362.176 354.945" xml:space="preserve">
<g>
	<path d="M362.176,94.461l-18.074,19.277l-21.926-20.723c-1.609,40.645-13.336,72.813-35.184,96.508s-52.211,37.066-91.086,40.117
		v40.004h33.977v27.949h-33.977v57.352H166.27v-57.352h-33.977v-27.949h33.977v-40.004c-38.719-2.891-68.961-16.141-90.727-39.758
		C53.777,166.27,41.93,133.98,40,93.016c0,0.16-3.453,3.535-10.359,10.121l-11.324,10.602L0,94.461l53.254-51.328l55.422,51.328
		l-17.348,19.277L69.641,93.496c3.371,66.668,35.582,102.652,96.629,107.953V49.398l-22.652,21.207L126.27,51.328L181.691,0
		l53.254,51.328l-18.316,19.277l-20.723-19.762v150.605c61.203-5.141,93.332-41.125,96.387-107.953l-21.445,20.242l-17.109-19.277
		l55.184-51.328L362.176,94.461z"/>
</g>
</svg>
