<!-- Sky Map sky-marker icon. Copyright (c) 2026 Penterakt LLC.
     All Rights Reserved - see LICENSE.md in this directory. -->
<svg xmlns="http://www.w3.org/2000/svg" viewBox="0 0 24 24">
  <g opacity="0.35">
    <path d="M14.52 11.37 L19.08 10.23" fill="none" stroke="#000" stroke-width="3.60" stroke-linecap="round" stroke-linejoin="round"/>
    <path d="M13.45 9.03 L14.63 6.61" fill="none" stroke="#000" stroke-width="3.60" stroke-linecap="round" stroke-linejoin="round"/>
    <path d="M11.32 9.91 L9.50 4.30" fill="none" stroke="#000" stroke-width="3.60" stroke-linecap="round" stroke-linejoin="round"/>
    <path d="M9.19 10.69 L6.83 9.59" fill="none" stroke="#000" stroke-width="3.60" stroke-linecap="round" stroke-linejoin="round"/>
    <path d="M9.62 12.77 L4.68 14.38" fill="none" stroke="#000" stroke-width="3.60" stroke-linecap="round" stroke-linejoin="round"/>
    <path d="M10.58 15.20 L9.48 17.66" fill="none" stroke="#000" stroke-width="3.60" stroke-linecap="round" stroke-linejoin="round"/>
    <path d="M12.71 14.19 L14.47 19.61" fill="none" stroke="#000" stroke-width="3.60" stroke-linecap="round" stroke-linejoin="round"/>
    <path d="M14.92 13.30 L17.02 14.24" fill="none" stroke="#000" stroke-width="3.60" stroke-linecap="round" stroke-linejoin="round"/>
  </g>
  <g>
    <path d="M14.52 11.37 L19.08 10.23" fill="none" stroke="#fff" stroke-width="1.40" stroke-linecap="round" stroke-linejoin="round"/>
    <path d="M13.45 9.03 L14.63 6.61" fill="none" stroke="#fff" stroke-width="1.40" stroke-linecap="round" stroke-linejoin="round"/>
    <path d="M11.32 9.91 L9.50 4.30" fill="none" stroke="#fff" stroke-width="1.40" stroke-linecap="round" stroke-linejoin="round"/>
    <path d="M9.19 10.69 L6.83 9.59" fill="none" stroke="#fff" stroke-width="1.40" stroke-linecap="round" stroke-linejoin="round"/>
    <path d="M9.62 12.77 L4.68 14.38" fill="none" stroke="#fff" stroke-width="1.40" stroke-linecap="round" stroke-linejoin="round"/>
    <path d="M10.58 15.20 L9.48 17.66" fill="none" stroke="#fff" stroke-width="1.40" stroke-linecap="round" stroke-linejoin="round"/>
    <path d="M12.71 14.19 L14.47 19.61" fill="none" stroke="#fff" stroke-width="1.40" stroke-linecap="round" stroke-linejoin="round"/>
    <path d="M14.92 13.30 L17.02 14.24" fill="none" stroke="#fff" stroke-width="1.40" stroke-linecap="round" stroke-linejoin="round"/>
  </g>
</svg>
